<?xml version="1.0" encoding="utf-8"?>
<!-- Generator: Adobe Illustrator 24.0.1, SVG Export Plug-In . SVG Version: 6.00 Build 0)  -->
<svg version="1.1" id="Layer_1" xmlns="http://www.w3.org/2000/svg" xmlns:xlink="http://www.w3.org/1999/xlink" x="0px" y="0px"
	 viewBox="0 0 167.55 74.85" style="enable-background:new 0 0 167.55 74.85;" xml:space="preserve">
<style type="text/css">
	.st0{fill:#083553;}
	.st1{fill:#F79720;}
	.st2{fill:#FFFFFF;}
</style>
<g>
	<path class="st0" d="M112.04,50.96c-1.98,0-3.92,0-5.87,0c-0.07-0.12-0.15-0.23-0.21-0.35c-2.4-4.51-4.8-9.02-7.2-13.53
		c-0.12-0.23-0.24-0.47-0.35-0.71c-0.13-0.3-0.35-0.5-0.64-0.64c-0.32-0.15-0.54-0.12-0.73,0.17c-0.14,0.21-0.2,0.48-0.27,0.73
		c-0.04,0.13-0.01,0.28-0.01,0.42c0,4.42,0,8.83,0,13.25c0,0.2,0,0.4,0,0.59c-0.36,0.11-5.59,0.13-6.12,0.03
		c-0.01-0.13-0.03-0.26-0.03-0.39c0-5.7-0.01-11.41,0-17.11c0-1.74,0.81-3.12,2.13-4.21c0.4-0.33,0.86-0.61,1.32-0.86
		c2.24-1.24,4.95-0.58,6.49,1.14c0.93,1.03,1.69,2.18,2.33,3.4c1.9,3.6,3.79,7.21,5.68,10.82c0.11,0.22,0.23,0.43,0.37,0.7
		c0.11-0.18,0.19-0.31,0.26-0.44c2.1-3.9,4.19-7.8,6.29-11.7c0.51-0.94,1.11-1.82,1.8-2.64c2.24-2.64,6.43-2.55,8.69,0.18
		c0.96,1.16,1.49,2.48,1.49,4.01c0,7.55,0,15.09,0,22.64c0,0.15-0.02,0.3-0.03,0.47c-2.07,0-4.11,0-6.22,0
		c0-0.18-0.01-0.35-0.01-0.53c0-6.29,0-12.58,0-18.87c0-0.17,0-0.34,0-0.51c-0.01-0.53-0.26-0.9-0.66-1
		c-0.4-0.1-0.77,0.12-1.03,0.61c-0.49,0.95-0.98,1.9-1.48,2.84c-1.93,3.71-3.85,7.42-5.78,11.13
		C112.19,50.71,112.12,50.82,112.04,50.96z"/>
	<path class="st0" d="M130.42,33.75c0-1.89,0-3.69,0-5.51c0.11-0.02,0.21-0.05,0.31-0.06c0.15-0.01,0.31,0,0.46,0
		c6.96,0,13.92,0.04,20.87-0.02c2.29-0.02,4.04,0.86,5.48,2.52c1.03,1.19,1.78,2.53,2.07,4.1c0.04,0.24,0.07,0.49,0.07,0.74
		c0,5.05,0,10.1,0,15.16c0,0.14-0.01,0.27-0.02,0.44c-2.16,0-4.29,0-6.46,0c0-0.48,0-0.94,0-1.51c-0.14,0.15-0.21,0.22-0.28,0.29
		c-0.68,0.71-1.47,1.12-2.5,1.12c-5.63-0.02-11.25-0.01-16.88-0.01c-1.26,0-2.2-0.53-2.87-1.58c-0.24-0.37-0.37-0.78-0.39-1.23
		c-0.01-0.26-0.03-0.53-0.03-0.79c-0.02-2.15-0.04-4.31-0.06-6.46c-0.01-0.69,0.09-1.36,0.35-2c0.56-1.38,1.67-2.14,3.16-2.14
		c5.3,0,10.6,0.02,15.9-0.01c1.36-0.01,2.44,0.47,3.31,1.47c0.05,0.06,0.11,0.11,0.16,0.17c0.01,0.01,0.03,0,0.09,0
		c0-0.59,0.02-1.19-0.01-1.79c-0.02-0.33-0.06-0.69-0.2-0.99c-0.5-1.14-1.35-1.82-2.64-1.87c-0.22-0.01-0.43-0.01-0.65-0.01
		c-6.21,0-12.43,0-18.64,0C130.85,33.75,130.66,33.75,130.42,33.75z M144.18,45.38c2.05,0,4.09-0.01,6.14,0.01
		c0.63,0,1.06-0.29,1.4-0.76c0.37-0.53,0.34-1.1-0.11-1.57c-0.43-0.46-0.95-0.72-1.6-0.72c-3.95,0-7.9,0-11.86,0
		c-0.12,0-0.26-0.02-0.37,0.02c-0.23,0.08-0.49,0.14-0.67,0.29c-0.49,0.4-0.68,1.25-0.45,1.83c0.24,0.6,0.73,0.91,1.47,0.91
		C140.15,45.38,142.17,45.38,144.18,45.38z"/>
	<path class="st0" d="M34.69,50.97c-2.13,0-4.18,0-6.22,0c-0.1-0.32-0.14-13.35-0.04-14.16c0.19-0.01,0.38-0.02,0.58-0.02
		c6.18,0,12.37,0,18.55,0c0.51,0,0.98-0.09,1.39-0.41c0.52-0.4,0.67-0.94,0.58-1.57c-0.08-0.61-0.46-0.98-1.02-1.13
		c-0.35-0.1-0.73-0.15-1.1-0.15c-6.12-0.01-12.24-0.01-18.36-0.01c-0.2,0-0.4,0-0.63,0c0-1.78,0-3.53,0-5.32
		c0.19-0.01,0.39-0.03,0.58-0.03c5.9,0,11.81,0,17.71,0c1.67,0,3.35,0.05,5.02-0.01c2.41-0.08,4.2,2.05,4.2,4.13
		c0,2.03,0.01,4.06,0,6.09c0,0.87-0.19,1.69-0.77,2.38c-0.36,0.42-0.77,0.78-1.31,0.93c-0.64,0.17-1.29,0.31-1.94,0.44
		c-0.29,0.06-0.58,0.08-0.95,0.13c0.1,0.15,0.17,0.25,0.25,0.35c2.28,2.62,4.56,5.24,6.83,7.85c2.18,2.5,4.35,5,6.53,7.5
		c0.1,0.11,0.18,0.23,0.34,0.44c-0.27,0-0.43,0-0.6,0c-2.32,0-4.65-0.01-6.97,0.01c-0.36,0-0.6-0.1-0.83-0.37
		c-1.7-1.95-3.41-3.89-5.12-5.83c-2.77-3.15-5.55-6.3-8.31-9.46c-0.28-0.32-0.56-0.45-0.99-0.44c-2.28,0.02-4.56,0.01-6.83,0.01
		c-0.17,0-0.34,0-0.57,0C34.69,45.21,34.69,48.06,34.69,50.97z"/>
	<path class="st0" d="M69.74,28.21c0.08,1.91-0.18,3.71-0.77,5.52c-0.27,0-0.52-0.03-0.76,0.01c-0.35,0.05-0.71,0.09-1.03,0.21
		c-0.75,0.29-1.38,0.77-1.89,1.39c-0.39,0.47-0.6,1-0.6,1.62c0.01,1.46,0,2.91,0.01,4.37c0.01,0.93,0.22,1.81,0.76,2.59
		c0.46,0.67,1.09,1.04,1.89,1.12c0.22,0.02,0.43,0.03,0.65,0.03c3.44,0,6.88,0,10.32,0c0.48,0,0.96-0.05,1.41-0.22
		c1.01-0.38,1.57-1.12,1.72-2.18c0.03-0.24,0.05-0.49,0.05-0.74c0-1.57,0-3.13,0-4.7c0-0.86-0.24-1.65-0.79-2.33
		c-0.7-0.87-1.67-1.13-2.72-1.18c-0.34-0.02-0.68,0-1.02-0.01c-0.13,0-0.26-0.02-0.49-0.04c1.25-1.74,2.24-3.53,2.96-5.49
		c0.83,0,1.65-0.09,2.46,0.11c2.15,0.54,3.81,1.75,4.94,3.66c0.52,0.88,0.77,1.86,0.85,2.87c0.04,0.52,0.06,1.05,0.06,1.58
		c0.01,2.43,0,4.87,0,7.3c0.01,3.13-1.55,5.29-4.19,6.78c-0.64,0.36-1.35,0.51-2.1,0.5c-5.32-0.01-10.63-0.03-15.95,0
		c-2.89,0.02-4.87-1.37-6.25-3.77c-0.67-1.16-0.98-2.42-0.96-3.78c0.03-2.62,0.03-5.24,0-7.86c-0.03-2.56,1.08-4.53,3.01-6.1
		c0.73-0.59,1.54-1.04,2.48-1.22c0.27-0.05,0.55-0.09,0.83-0.09c1.58-0.01,3.16,0,4.74,0C69.48,28.18,69.59,28.2,69.74,28.21z"/>
	<path class="st0" d="M25.18,33.57c-0.22,0-0.4,0-0.59,0c-4.48,0-8.96,0-13.43,0c-1.57,0-3.03,1-3.59,2.48
		c-0.09,0.24-0.14,0.51-0.14,0.77c-0.01,1.81,0.01,3.63,0,5.44c-0.01,1.16,0.94,2.74,2.67,3.03c0.21,0.04,0.43,0.03,0.65,0.03
		c4.66,0,9.33,0,13.99,0c0.18,0,0.36,0,0.57,0c0,1.9,0,3.75,0,5.64c-0.15,0.01-0.28,0.03-0.42,0.03c-5.58,0-11.16,0.02-16.73-0.02
		c-3.45-0.03-6.29-2.38-6.96-5.66c-0.09-0.45-0.11-0.92-0.11-1.38C1.07,40.95,1.11,37.97,1.06,35c-0.02-1.54,0.45-2.85,1.39-4.03
		c0.81-1.02,1.79-1.84,2.97-2.41c0.52-0.26,1.07-0.38,1.66-0.38c5.86,0.01,11.71,0,17.57,0c0.17,0,0.34,0,0.53,0
		C25.18,29.98,25.18,31.74,25.18,33.57z"/>
	<path class="st1" d="M72.63,0.92c0.14,0.16,0.28,0.32,0.42,0.49c2.67,3.24,4.7,6.83,5.85,10.88c0.79,2.8,1.1,5.64,0.92,8.55
		c-0.16,2.64-0.63,5.23-1.63,7.69c-1.45,3.58-3.73,6.52-6.96,8.67c-0.85,0.57-1.77,1.03-2.75,1.34c-0.14,0.05-0.29,0.08-0.53,0.14
		c0.12-0.23,0.19-0.37,0.27-0.51c0.89-1.64,1.62-3.34,2.07-5.16c0.69-2.74,0.73-5.48-0.06-8.21c-0.95-3.31-3.11-5.38-6.42-6.27
		c-0.16-0.04-0.31-0.09-0.57-0.17c0.21-0.13,0.32-0.22,0.45-0.29c0.8-0.41,1.65-0.52,2.53-0.43c1.18,0.12,2.29,0.53,3.39,0.93
		c0.8,0.29,1.6,0.58,2.41,0.84c0.52,0.17,1.05,0.23,1.6,0.17c0.65-0.07,1.13-0.39,1.49-0.91c0.31-0.44,0.48-0.93,0.6-1.45
		c0.21-0.91,0.25-1.84,0.22-2.77c-0.08-2.3-0.53-4.55-1.11-6.76c-0.57-2.16-1.29-4.27-2.15-6.33c-0.05-0.12-0.09-0.25-0.13-0.38
		C72.57,0.95,72.6,0.94,72.63,0.92z"/>
	<path class="st1" d="M63.37,10.89c0.01-1.48,0.47-2.8,1.48-3.9c2.06-2.24,5.43-2.23,7.49,0.01c2.1,2.29,1.92,5.99-0.39,8.06
		c-2.51,2.24-6.38,1.47-7.94-1.59C63.6,12.69,63.39,11.81,63.37,10.89z"/>
	<path class="st0" d="M161.28,25.01c0.01-1.39,0.81-2.46,2.01-2.76c0.77-0.19,1.49-0.04,2.12,0.44c1.35,1.02,1.5,3.24,0.07,4.41
		c-1.42,1.17-3.51,0.5-4.07-1.28c-0.05-0.16-0.08-0.33-0.11-0.5C161.29,25.19,161.28,25.05,161.28,25.01z M163.87,22.71
		c-0.26,0.07-0.53,0.11-0.77,0.22c-1.29,0.57-1.67,2.29-0.77,3.43c0.6,0.76,1.64,0.97,2.49,0.52c0.58-0.31,0.92-0.8,1.07-1.43
		C166.23,24.09,165.22,22.75,163.87,22.71z"/>
	<path class="st0" d="M162.7,23.5c0.56,0,1.06-0.03,1.55,0.01c0.42,0.03,0.63,0.28,0.69,0.65c0.06,0.37-0.09,0.69-0.44,0.89
		c-0.04,0.02-0.09,0.04-0.13,0.06c0.24,0.41,0.48,0.81,0.75,1.27c-0.28,0-0.49,0-0.72,0c-0.15-0.27-0.29-0.55-0.45-0.82
		c-0.17-0.29-0.3-0.34-0.67-0.29c0,0.36,0,0.72,0,1.11c-0.2,0-0.36,0-0.57,0C162.68,25.43,162.7,24.48,162.7,23.5z M163.3,24.7
		c0.26,0,0.48,0.02,0.7,0c0.19-0.02,0.33-0.18,0.33-0.34c0.01-0.17-0.11-0.32-0.3-0.36c-0.24-0.05-0.48-0.06-0.73-0.01
		C163.3,24.23,163.3,24.45,163.3,24.7z"/>
	<rect x="1.76" y="60.51" class="st0" width="81.67" height="12.34"/>
	<path class="st2" d="M7.39,69.73h2.99v1.03H5.99v-8.17h1.4V69.73z"/>
	<path class="st2" d="M15.32,63.66v2.48h3.19v1.02h-3.19v2.54h3.56v1.08h-4.95v-8.17h4.95v1.07H15.32z"/>
	<path class="st2" d="M27.85,68.99H24.2l-0.66,1.77h-1.5l3.19-8.05h1.61l3.18,8.05h-1.5L27.85,68.99z M27.46,67.97l-1.43-3.82
		l-1.43,3.82H27.46z"/>
	<path class="st2" d="M38.05,70.76L35.9,67.5H34.9v3.27h-1.4v-8.17h3.05c0.99,0,1.74,0.23,2.25,0.68c0.51,0.46,0.77,1.06,0.77,1.81
		c0,0.64-0.19,1.17-0.57,1.57c-0.38,0.41-0.93,0.67-1.65,0.79l2.27,3.32H38.05z M34.9,66.56h1.54c1.13,0,1.69-0.47,1.69-1.41
		c0-0.45-0.14-0.8-0.41-1.05c-0.27-0.25-0.7-0.38-1.28-0.38H34.9V66.56z"/>
	<path class="st2" d="M50.29,70.76h-1.4l-4.21-6.03v6.03h-1.4V62.6h1.4l4.21,6.05V62.6h1.4V70.76z"/>
	<path class="st2" d="M55.84,62.59v8.17h-1.4v-8.17H55.84z"/>
	<path class="st2" d="M66.98,70.76h-1.4l-4.21-6.03v6.03h-1.4V62.6h1.4l4.21,6.05V62.6h1.4V70.76z"/>
	<path class="st2" d="M77.66,63.24c0.69,0.48,1.14,1.13,1.36,1.96h-1.47c-0.19-0.44-0.5-0.79-0.92-1.05
		c-0.43-0.26-0.94-0.39-1.53-0.39c-0.54,0-1.02,0.12-1.45,0.36c-0.43,0.24-0.76,0.58-1,1.02c-0.24,0.44-0.36,0.96-0.36,1.55
		c0,0.62,0.12,1.16,0.37,1.61c0.25,0.45,0.59,0.79,1.04,1.02c0.45,0.24,0.96,0.35,1.55,0.35c0.72,0,1.34-0.21,1.85-0.63
		c0.51-0.42,0.82-1,0.93-1.73h-3.18v-0.97h4.35v1.26c-0.1,0.6-0.33,1.15-0.68,1.64s-0.82,0.88-1.41,1.18
		c-0.58,0.29-1.25,0.44-2.01,0.44c-0.84,0-1.59-0.18-2.23-0.53c-0.65-0.35-1.15-0.85-1.5-1.48c-0.35-0.63-0.53-1.35-0.53-2.16
		c0-0.81,0.18-1.53,0.53-2.16c0.35-0.63,0.85-1.12,1.49-1.47c0.64-0.35,1.38-0.53,2.23-0.53C76.12,62.52,76.98,62.76,77.66,63.24z"
		/>
	<path class="st1" d="M97.16,62.54c0.89,0.71,1.46,1.68,1.73,2.89h-2.73c-0.2-0.49-0.51-0.88-0.93-1.16
		c-0.42-0.28-0.91-0.42-1.48-0.42c-0.75,0-1.36,0.28-1.82,0.83c-0.46,0.55-0.69,1.29-0.69,2.21s0.23,1.66,0.69,2.21
		c0.46,0.55,1.07,0.82,1.82,0.82c0.57,0,1.07-0.14,1.48-0.42c0.42-0.28,0.72-0.66,0.93-1.15h2.73c-0.26,1.2-0.84,2.17-1.73,2.88
		c-0.89,0.72-2.01,1.08-3.37,1.08c-1.03,0-1.94-0.23-2.73-0.69c-0.78-0.46-1.39-1.1-1.82-1.92c-0.43-0.82-0.64-1.76-0.64-2.82
		s0.21-1.99,0.64-2.82c0.43-0.82,1.03-1.46,1.82-1.92c0.78-0.46,1.69-0.69,2.73-0.69C95.15,61.47,96.27,61.83,97.16,62.54z"/>
	<path class="st1" d="M108.36,70.28h-3.99l-0.66,1.94h-2.71l3.9-10.57h2.97l3.9,10.57h-2.74L108.36,70.28z M107.7,68.32l-1.33-3.92
		l-1.34,3.92H107.7z"/>
	<path class="st1" d="M126.16,61.65v10.57h-2.57v-6.61l-2.29,6.61h-2.23l-2.3-6.63v6.63h-2.57V61.65h3.15l2.88,7.36l2.82-7.36
		H126.16z"/>
	<path class="st1" d="M131.94,68.49v3.74h-2.57V61.57h4.17c1.26,0,2.23,0.31,2.89,0.94c0.66,0.63,0.99,1.47,0.99,2.54
		c0,0.66-0.15,1.25-0.44,1.77s-0.74,0.92-1.32,1.22c-0.58,0.3-1.29,0.44-2.12,0.44H131.94z M134.8,65.05c0-0.93-0.52-1.4-1.55-1.4
		h-1.31v2.77h1.31C134.29,66.42,134.8,65.97,134.8,65.05z"/>
	<path class="st1" d="M142.62,61.57v6.15c0,0.7,0.16,1.24,0.48,1.61c0.31,0.37,0.78,0.56,1.38,0.56c0.6,0,1.06-0.19,1.38-0.56
		c0.32-0.37,0.48-0.91,0.48-1.61v-6.15h2.57v6.15c0,1-0.2,1.85-0.59,2.54c-0.39,0.69-0.93,1.2-1.6,1.55
		c-0.68,0.35-1.44,0.52-2.3,0.52s-1.61-0.17-2.26-0.51c-0.65-0.34-1.17-0.86-1.54-1.55c-0.37-0.69-0.56-1.54-0.56-2.54v-6.15H142.62
		z"/>
	<path class="st1" d="M159.27,70.78c-0.29,0.47-0.71,0.85-1.26,1.13c-0.56,0.28-1.23,0.42-2.03,0.42c-1.19,0-2.18-0.29-2.95-0.87
		c-0.77-0.58-1.19-1.39-1.26-2.44h2.74c0.04,0.4,0.18,0.72,0.43,0.95c0.25,0.23,0.56,0.35,0.94,0.35c0.33,0,0.59-0.09,0.78-0.27
		c0.19-0.18,0.29-0.42,0.29-0.72c0-0.27-0.09-0.5-0.26-0.68c-0.18-0.18-0.39-0.33-0.66-0.44c-0.26-0.12-0.62-0.25-1.08-0.42
		c-0.67-0.23-1.22-0.45-1.65-0.67c-0.43-0.22-0.79-0.54-1.1-0.96c-0.31-0.43-0.46-0.98-0.46-1.66c0-0.63,0.16-1.18,0.48-1.64
		c0.32-0.46,0.77-0.81,1.33-1.06c0.57-0.25,1.22-0.37,1.95-0.37c1.18,0,2.12,0.28,2.82,0.84c0.7,0.56,1.09,1.34,1.18,2.32h-2.79
		c-0.05-0.35-0.18-0.63-0.38-0.84c-0.21-0.21-0.48-0.31-0.84-0.31c-0.3,0-0.55,0.08-0.73,0.24c-0.19,0.16-0.28,0.4-0.28,0.71
		c0,0.25,0.08,0.47,0.25,0.64c0.17,0.18,0.37,0.32,0.62,0.43s0.61,0.25,1.08,0.42c0.68,0.23,1.24,0.46,1.67,0.69
		c0.43,0.23,0.8,0.56,1.11,0.99c0.31,0.43,0.47,0.99,0.47,1.69C159.7,69.79,159.55,70.3,159.27,70.78z"/>
</g>
</svg>
